# xmcd
#
# Track frame offsets:
# 150
# 15148
# 29844
# 43902
# 61059
# 73081
# 89554
# 105841
# 120628
# 137256
# 152609
# 166547
# 183681
# 198801
# 216669
# 234606
# 252414
# 267590
# 282320
# 298304
# 311760
# 324215
#
# Disc length: 4492 seconds
#
#
# Revision: 0
# Processed by: cddbd v1.5.2PL0 Copyright (c) Steve Scherf et al.
# Submitted via: FreeRIP 2.96 
#
DISCID=43118a16
DTITLE=AS 22 MAIS JOIAS SERTANEJAS
DYEAR=1980
DGENRE=Country
TTITLE0=ESQUINA DO ADEUS
TTITLE1=QUANDO RECORDAR O PASSADO
TTITLE2=AMARGURADO
TTITLE3=COMO EU CHOREI
TTITLE4=DAMA DE VERMELHO
TTITLE5=PRANTO ESCONDIDO
TTITLE6=AMANTE AMIGA
TTITLE7=PAINEIRA VELHA
TTITLE8=LA ONDE EU MORO
TTITLE9=LINDA CINGANA
TTITLE10=TU E AS NUVENS
TTITLE11=MAGOA DE BOIADEIRO
TTITLE12=POEIRA
TTITLE13=CORAÇAO DE PEDRA
TTITLE14=A SEMENTINHA
TTITLE15=MEU PRIMEIRO AMOR
TTITLE16=ESCUTA MINHA CANÇAO
TTITLE17=CUITELINHO
TTITLE18=LEMBRANÇA
TTITLE19=RECORDAÇÃO
TTITLE20=ROUBADA EM GOIANIA
TTITLE21=PISANDO EM MEU CORAÇÃO
EXTD=
EXTT0=BELMONTE AMARAI
EXTT1=CREONE E BARRERITO
EXTT2=TIAO CARREIRO E PARDINHO
EXTT3=LOURENÇO E LOURIVAL
EXTT4=PEDRO BENTO ZE DA ESTRADA
EXTT5=MOCOCA E MORACI
EXTT6=TRIO DA VITORIA
EXTT7=ZE FURTUNA E PINTANGUEIRA
EXTT8=TIAO CARREIRO
EXTT9=SILVEIRA E SILVEIRNHO
EXTT10=BELMONTE E AMARAI
EXTT11=PEDRO BENDO E ZE DA ESTRADA
EXTT12=DUO GLACIAL
EXTT13=EDU E ADAO
EXTT14=BIA E DINO FRANGO
EXTT15=CASCATINHA E INHANA
EXTT16=OSMANO E MANITO
EXTT17=PENA BRANCA
EXTT18=ZE FURTUNA E PINTANGUEIRA
EXTT19=NENETE E DORINHA
EXTT20=PRAIAO E PRAINHA
EXTT21=SILVEIRA E SILVEIRINHA
PLAYORDER=
